<svg width="19" height="17" viewBox="0 0 19 17" fill="none" xmlns="http://www.w3.org/2000/svg">
<path d="M18.3359 18.2109L13.7344 13.6094C14.875 12.2188 15.5625 10.4375 15.5625 8.49609C15.5625 4.04297 11.9492 0.429688 7.49609 0.429688C3.03906 0.429688 -0.570312 4.04297 -0.570312 8.49609C-0.570312 12.9492 3.03906 16.5625 7.49609 16.5625C9.4375 16.5625 11.2148 15.8789 12.6055 14.7383L17.207 19.3359C17.5195 19.6484 18.0234 19.6484 18.3359 19.3359C18.6484 19.0273 18.6484 18.5195 18.3359 18.2109ZM7.49609 14.957C3.92969 14.957 1.03125 12.0586 1.03125 8.49609C1.03125 4.93359 3.92969 2.03125 7.49609 2.03125C11.0586 2.03125 13.9609 4.93359 13.9609 8.49609C13.9609 12.0586 11.0586 14.957 7.49609 14.957Z" fill="rgb(117, 117, 117)"/>
</svg>
